<mxfile host="65bd71144e">
    <diagram id="DnqfHskDm8lRYhYY3v11" name="第 1 页">
        <mxGraphModel dx="1163" dy="1614" grid="1" gridSize="10" guides="1" tooltips="1" connect="1" arrows="1" fold="1" page="1" pageScale="1" pageWidth="1169" pageHeight="827" background="#ffffff" math="0" shadow="0">
            <root>
                <mxCell id="0"/>
                <mxCell id="1" parent="0"/>
                <mxCell id="18" style="edgeStyle=none;html=1;exitX=1;exitY=0.5;exitDx=0;exitDy=0;entryX=0.001;entryY=0.238;entryDx=0;entryDy=0;entryPerimeter=0;strokeColor=#4ce60a;fillColor=#66FF66;" parent="1" source="2" target="6" edge="1">
                    <mxGeometry relative="1" as="geometry"/>
                </mxCell>
                <mxCell id="2" value="清晖园" style="rounded=1;whiteSpace=wrap;html=1;fillColor=#1ba1e2;fontColor=#ffffff;strokeColor=#006EAF;" parent="1" vertex="1">
                    <mxGeometry x="160" y="80" width="160" height="40" as="geometry"/>
                </mxCell>
                <mxCell id="3" value="宝林寺" style="rounded=1;whiteSpace=wrap;html=1;fillColor=#1ba1e2;fontColor=#ffffff;strokeColor=#006EAF;" parent="1" vertex="1">
                    <mxGeometry x="160" y="200" width="160" height="40" as="geometry"/>
                </mxCell>
                <mxCell id="4" value="顺峰山公园" style="rounded=1;whiteSpace=wrap;html=1;fillColor=#1ba1e2;fontColor=#ffffff;strokeColor=#006EAF;" parent="1" vertex="1">
                    <mxGeometry x="160" y="320" width="160" height="40" as="geometry"/>
                </mxCell>
                <mxCell id="5" value="渔人码头" style="rounded=1;whiteSpace=wrap;html=1;fillColor=#1ba1e2;fontColor=#ffffff;strokeColor=#006EAF;" parent="1" vertex="1">
                    <mxGeometry x="160" y="440" width="160" height="40" as="geometry"/>
                </mxCell>
                <mxCell id="6" value="&lt;font style=&quot;&quot; color=&quot;#404e0d&quot;&gt;预计到达时间：2024-10-03 11:30&lt;br&gt;到达下一站方式：&lt;/font&gt;&lt;span style=&quot;background-color: initial;&quot;&gt;&lt;font color=&quot;#404e0d&quot;&gt;清晖园&amp;nbsp;&lt;/font&gt;&lt;/span&gt;&lt;span style=&quot;color: rgb(64, 78, 13); background-color: initial;&quot;&gt;步行 40米&amp;nbsp;&lt;/span&gt;&lt;span style=&quot;color: rgb(64, 78, 13); background-color: initial;&quot;&gt;清晖园站 上车918B路(或305路319路)宝林寺站 下车步行 230米&amp;nbsp;&lt;/span&gt;&lt;span style=&quot;color: rgb(64, 78, 13); background-color: initial;&quot;&gt;宝林寺&lt;/span&gt;&lt;span style=&quot;background-color: initial;&quot;&gt;&lt;font color=&quot;#404e0d&quot;&gt;&lt;br&gt;&lt;/font&gt;&lt;/span&gt;&lt;font style=&quot;&quot; color=&quot;#404e0d&quot;&gt;到达下一站时长：&lt;/font&gt;&lt;span style=&quot;color: rgb(64, 78, 13);&quot;&gt;全程约28分钟&lt;/span&gt;&lt;font style=&quot;&quot; color=&quot;#404e0d&quot;&gt;&lt;br&gt;当前站游玩时长：1h&lt;br&gt;午饭：0.5h&lt;br&gt;&lt;/font&gt;" style="shape=note;whiteSpace=wrap;html=1;backgroundOutline=1;darkOpacity=0.05;fillColor=#bac8d3;strokeColor=#23445d;align=left;" parent="1" vertex="1">
                    <mxGeometry x="360" y="80" width="800" height="80" as="geometry"/>
                </mxCell>
                <mxCell id="29" value="" style="edgeStyle=none;html=1;strokeColor=#4ce60a;fontColor=#1486f0;fillColor=#66FF66;" parent="1" source="7" target="6" edge="1">
                    <mxGeometry relative="1" as="geometry"/>
                </mxCell>
                <mxCell id="7" value="&lt;font style=&quot;&quot; color=&quot;#404e0d&quot;&gt;预计到达时间：2024-10-03 14:00&lt;br&gt;到达下一站方式：&lt;/font&gt;&lt;span style=&quot;background-color: initial;&quot;&gt;&lt;font color=&quot;#404e0d&quot;&gt;宝林寺&amp;nbsp;&lt;/font&gt;&lt;/span&gt;&lt;span style=&quot;color: rgb(64, 78, 13); background-color: initial;&quot;&gt;步行 290米&amp;nbsp;&lt;/span&gt;&lt;span style=&quot;color: rgb(64, 78, 13); background-color: initial;&quot;&gt;宝林寺站 上车304B路顺成大融城北门站 下车&amp;nbsp;&lt;/span&gt;&lt;span style=&quot;color: rgb(64, 78, 13); background-color: initial;&quot;&gt;步行 480米&amp;nbsp;&lt;/span&gt;&lt;span style=&quot;color: rgb(64, 78, 13); background-color: initial;&quot;&gt;顺峰山公园&lt;/span&gt;&lt;span style=&quot;background-color: initial;&quot;&gt;&lt;font color=&quot;#404e0d&quot;&gt;&lt;br&gt;&lt;/font&gt;&lt;/span&gt;&lt;font style=&quot;&quot; color=&quot;#404e0d&quot;&gt;到达下一站时长：&lt;/font&gt;&lt;span style=&quot;color: rgb(64, 78, 13);&quot;&gt;全程约27分钟&lt;/span&gt;&lt;font style=&quot;&quot; color=&quot;#404e0d&quot;&gt;&lt;br&gt;&lt;div style=&quot;&quot;&gt;&lt;span style=&quot;background-color: initial;&quot;&gt;当前站游玩时长：1.5h&lt;/span&gt;&lt;/div&gt;&lt;/font&gt;" style="shape=note;whiteSpace=wrap;html=1;backgroundOutline=1;darkOpacity=0.05;fillColor=#bac8d3;strokeColor=#23445d;align=left;" parent="1" vertex="1">
                    <mxGeometry x="360" y="200" width="800" height="80" as="geometry"/>
                </mxCell>
                <mxCell id="8" value="&lt;font style=&quot;&quot; color=&quot;#404e0d&quot;&gt;预计到达时间：2024-10-03 16:00&lt;br&gt;到达下一站方式：&lt;/font&gt;&lt;font color=&quot;#404e0d&quot;&gt;&lt;span style=&quot;background-color: initial;&quot;&gt;顺峰山公园&amp;nbsp;&lt;/span&gt;&lt;/font&gt;&lt;span style=&quot;background-color: initial; color: rgb(64, 78, 13);&quot;&gt;步行 800米&amp;nbsp;&lt;/span&gt;&lt;span style=&quot;background-color: initial; color: rgb(64, 78, 13);&quot;&gt;区行政服务中心站 上车928路富丽大厦站 下车步行 1000米&amp;nbsp;&lt;/span&gt;&lt;span style=&quot;background-color: initial; color: rgb(64, 78, 13);&quot;&gt;渔人码头&lt;/span&gt;&lt;font color=&quot;#404e0d&quot;&gt;&lt;span style=&quot;background-color: initial;&quot;&gt;&lt;br&gt;&lt;/span&gt;&lt;/font&gt;&lt;font style=&quot;&quot; color=&quot;#404e0d&quot;&gt;到达下一站时长：&lt;/font&gt;&lt;span style=&quot;color: rgb(64, 78, 13);&quot;&gt;全程约57分钟&lt;/span&gt;&lt;font style=&quot;&quot; color=&quot;#404e0d&quot;&gt;&lt;br&gt;&lt;div style=&quot;&quot;&gt;&lt;span style=&quot;background-color: initial;&quot;&gt;当前站游玩时长：1.5h&lt;/span&gt;&lt;/div&gt;&lt;/font&gt;" style="shape=note;whiteSpace=wrap;html=1;backgroundOutline=1;darkOpacity=0.05;fillColor=#bac8d3;strokeColor=#23445d;align=left;" parent="1" vertex="1">
                    <mxGeometry x="360" y="320" width="800" height="80" as="geometry"/>
                </mxCell>
                <mxCell id="9" value="&lt;font style=&quot;&quot; color=&quot;#404e0d&quot;&gt;预计到达时间：2024-10-03 18:30&lt;br&gt;到达下一站方式：骑车或步行(附近多酒店)&lt;br&gt;到达下一站时长：&lt;/font&gt;&lt;span style=&quot;color: rgb(64, 78, 13);&quot;&gt;全程约30分钟&lt;/span&gt;&lt;font style=&quot;&quot; color=&quot;#404e0d&quot;&gt;&lt;br&gt;当前站游玩时长：1.5h&lt;/font&gt;" style="shape=note;whiteSpace=wrap;html=1;backgroundOutline=1;darkOpacity=0.05;fillColor=#bac8d3;strokeColor=#23445d;align=left;" parent="1" vertex="1">
                    <mxGeometry x="360" y="440" width="800" height="80" as="geometry"/>
                </mxCell>
                <mxCell id="11" value="" style="shape=flexArrow;endArrow=classic;html=1;exitX=0.5;exitY=1;exitDx=0;exitDy=0;entryX=0.5;entryY=0;entryDx=0;entryDy=0;strokeColor=#4ce60a;fillColor=#66FF66;" parent="1" source="2" target="3" edge="1">
                    <mxGeometry width="50" height="50" relative="1" as="geometry">
                        <mxPoint x="250" y="160" as="sourcePoint"/>
                        <mxPoint x="300" y="110" as="targetPoint"/>
                    </mxGeometry>
                </mxCell>
                <mxCell id="12" value="" style="shape=flexArrow;endArrow=classic;html=1;exitX=0.5;exitY=1;exitDx=0;exitDy=0;strokeColor=#4ce60a;fillColor=#66FF66;" parent="1" source="3" edge="1">
                    <mxGeometry width="50" height="50" relative="1" as="geometry">
                        <mxPoint x="240" y="270" as="sourcePoint"/>
                        <mxPoint x="240" y="320" as="targetPoint"/>
                    </mxGeometry>
                </mxCell>
                <mxCell id="13" value="" style="shape=flexArrow;endArrow=classic;html=1;exitX=0.5;exitY=1;exitDx=0;exitDy=0;strokeColor=#4ce60a;fillColor=#66FF66;entryX=0.5;entryY=0;entryDx=0;entryDy=0;" parent="1" source="4" target="5" edge="1">
                    <mxGeometry width="50" height="50" relative="1" as="geometry">
                        <mxPoint x="230" y="400" as="sourcePoint"/>
                        <mxPoint x="230" y="480" as="targetPoint"/>
                    </mxGeometry>
                </mxCell>
                <mxCell id="14" value="" style="shape=flexArrow;endArrow=classic;html=1;exitX=0.5;exitY=1;exitDx=0;exitDy=0;strokeColor=#4ce60a;fillColor=#66FF66;" parent="1" source="5" edge="1">
                    <mxGeometry width="50" height="50" relative="1" as="geometry">
                        <mxPoint x="230" y="510" as="sourcePoint"/>
                        <mxPoint x="240" y="550" as="targetPoint"/>
                    </mxGeometry>
                </mxCell>
                <mxCell id="15" value="酒店" style="rounded=1;whiteSpace=wrap;html=1;fillColor=#1ba1e2;fontColor=#ffffff;strokeColor=#006EAF;" parent="1" vertex="1">
                    <mxGeometry x="160" y="560" width="160" height="40" as="geometry"/>
                </mxCell>
                <mxCell id="16" value="&lt;font color=&quot;#404e0d&quot;&gt;预计到达时间：2024-10-03 20:30&lt;br&gt;&lt;/font&gt;&lt;font color=&quot;#404e0d&quot;&gt;吃饭：1±0.5h&lt;br&gt;休息：&lt;/font&gt;&lt;span style=&quot;color: rgb(64, 78, 13);&quot;&gt;2024-10-03&amp;nbsp;21:30&lt;/span&gt;&lt;font style=&quot;&quot; color=&quot;#404e0d&quot;&gt;&lt;br&gt;&lt;/font&gt;" style="shape=note;whiteSpace=wrap;html=1;backgroundOutline=1;darkOpacity=0.05;fillColor=#bac8d3;strokeColor=#23445d;align=left;" parent="1" vertex="1">
                    <mxGeometry x="360" y="560" width="800" height="80" as="geometry"/>
                </mxCell>
                <mxCell id="19" style="edgeStyle=none;html=1;exitX=1;exitY=0.5;exitDx=0;exitDy=0;strokeColor=#4ce60a;fillColor=#66FF66;" parent="1" source="3" edge="1">
                    <mxGeometry relative="1" as="geometry">
                        <mxPoint x="330" y="220" as="sourcePoint"/>
                        <mxPoint x="360" y="220" as="targetPoint"/>
                    </mxGeometry>
                </mxCell>
                <mxCell id="21" style="edgeStyle=none;html=1;exitX=1;exitY=0.5;exitDx=0;exitDy=0;strokeColor=#4ce60a;fillColor=#66FF66;" parent="1" source="4" edge="1">
                    <mxGeometry relative="1" as="geometry">
                        <mxPoint x="330" y="340" as="sourcePoint"/>
                        <mxPoint x="360" y="340" as="targetPoint"/>
                    </mxGeometry>
                </mxCell>
                <mxCell id="22" style="edgeStyle=none;html=1;exitX=1;exitY=0.5;exitDx=0;exitDy=0;strokeColor=#4ce60a;fillColor=#66FF66;" parent="1" source="5" edge="1">
                    <mxGeometry relative="1" as="geometry">
                        <mxPoint x="340" y="460" as="sourcePoint"/>
                        <mxPoint x="360" y="460" as="targetPoint"/>
                    </mxGeometry>
                </mxCell>
                <mxCell id="23" style="edgeStyle=none;html=1;exitX=1;exitY=0.5;exitDx=0;exitDy=0;strokeColor=#4ce60a;fillColor=#66FF66;" parent="1" source="15" edge="1">
                    <mxGeometry relative="1" as="geometry">
                        <mxPoint x="330" y="580" as="sourcePoint"/>
                        <mxPoint x="360" y="580" as="targetPoint"/>
                    </mxGeometry>
                </mxCell>
                <mxCell id="24" value="&lt;h1&gt;&lt;font color=&quot;#1486f0&quot;&gt;佛山day1&lt;/font&gt;&lt;/h1&gt;" style="text;html=1;strokeColor=none;fillColor=none;spacing=5;spacingTop=-20;whiteSpace=wrap;overflow=hidden;rounded=0;" parent="1" vertex="1">
                    <mxGeometry x="160" y="-110" width="260" height="80" as="geometry"/>
                </mxCell>
                <mxCell id="25" value="广州塔" style="rounded=1;whiteSpace=wrap;html=1;fillColor=#1ba1e2;fontColor=#ffffff;strokeColor=#006EAF;" parent="1" vertex="1">
                    <mxGeometry x="160" y="-40" width="160" height="40" as="geometry"/>
                </mxCell>
                <mxCell id="26" value="&lt;font style=&quot;&quot; color=&quot;#404e0d&quot;&gt;出发时间：2024-10-03 10:10&lt;br&gt;到达下一站方式：&lt;/font&gt;&lt;span style=&quot;background-color: initial;&quot;&gt;&lt;font color=&quot;#404e0d&quot;&gt;步行 110米&amp;nbsp;&lt;/font&gt;&lt;/span&gt;&lt;span style=&quot;color: rgb(64, 78, 13); background-color: initial;&quot;&gt;广州塔站 上车地铁3号线 (海傍方向)汉溪长隆站 下车&amp;nbsp;&lt;/span&gt;&lt;span style=&quot;color: rgb(64, 78, 13); background-color: initial;&quot;&gt;站内换乘 步行 140米&amp;nbsp;&lt;/span&gt;&lt;span style=&quot;color: rgb(64, 78, 13); background-color: initial;&quot;&gt;汉溪长隆站 上车地铁7号线(美的大道方向)北滘公园站 下车&amp;nbsp;&lt;/span&gt;&lt;span style=&quot;color: rgb(64, 78, 13); background-color: initial;&quot;&gt;北滘公园站 上车佛山地铁3号线 (顺德学院方向)大良钟楼站(E口出)下车&amp;nbsp;&lt;/span&gt;&lt;span style=&quot;color: rgb(64, 78, 13); background-color: initial;&quot;&gt;步行 600米&lt;/span&gt;&lt;span style=&quot;background-color: initial;&quot;&gt;&lt;font color=&quot;#404e0d&quot;&gt;&lt;br&gt;&lt;/font&gt;&lt;/span&gt;&lt;font style=&quot;&quot; color=&quot;#404e0d&quot;&gt;到达下一站时长：&lt;/font&gt;&lt;span style=&quot;color: rgb(64, 78, 13);&quot;&gt;全程约1小时18分钟&lt;/span&gt;&lt;font style=&quot;&quot; color=&quot;#404e0d&quot;&gt;&lt;br&gt;当前站游玩时长：0h&lt;/font&gt;" style="shape=note;whiteSpace=wrap;html=1;backgroundOutline=1;darkOpacity=0.05;fillColor=#bac8d3;strokeColor=#23445d;align=left;" parent="1" vertex="1">
                    <mxGeometry x="360" y="-40" width="800" height="80" as="geometry"/>
                </mxCell>
                <mxCell id="27" value="" style="shape=flexArrow;endArrow=classic;html=1;exitX=0.5;exitY=1;exitDx=0;exitDy=0;entryX=0.5;entryY=0;entryDx=0;entryDy=0;strokeColor=#4ce60a;fillColor=#66FF66;" parent="1" edge="1">
                    <mxGeometry width="50" height="50" relative="1" as="geometry">
                        <mxPoint x="239.41" as="sourcePoint"/>
                        <mxPoint x="239.41" y="80" as="targetPoint"/>
                    </mxGeometry>
                </mxCell>
                <mxCell id="28" style="edgeStyle=none;html=1;exitX=1;exitY=0.5;exitDx=0;exitDy=0;strokeColor=#4ce60a;fillColor=#66FF66;" parent="1" source="25" edge="1">
                    <mxGeometry relative="1" as="geometry">
                        <mxPoint x="330" y="-20" as="sourcePoint"/>
                        <mxPoint x="360" y="-21" as="targetPoint"/>
                    </mxGeometry>
                </mxCell>
            </root>
        </mxGraphModel>
    </diagram>
</mxfile>
